<svg xmlns="http://www.w3.org/2000/svg" xmlns:xlink="http://www.w3.org/1999/xlink" class="httpgd" width="1371.11" height="654.44" viewBox="0 0 1371.11 654.44">
<defs>
  <style type='text/css'><![CDATA[
    .httpgd line, .httpgd polyline, .httpgd polygon, .httpgd path, .httpgd rect, .httpgd circle {
      fill: none;
      stroke: #000000;
      stroke-linecap: round;
      stroke-linejoin: round;
      stroke-miterlimit: 10.00;
    }
  ]]></style>
<clipPath id="c0"><rect x="0.00" y="0.00" width="1371.11" height="654.44"/></clipPath>
<clipPath id="c1"><rect x="31.30" y="5.48" width="1334.33" height="617.23"/></clipPath>
<clipPath id="c2"><rect x="0.00" y="0.00" width="1371.11" height="654.44"/></clipPath>
</defs>
<rect width="100%" height="100%" style="stroke: none;fill: #FFFFFF;"/>
<g clip-path="url(#c0)">
</g><g clip-path="url(#c1)">
<polyline points="31.30,506.04 1365.63,506.04" style="stroke-width: 0.53;stroke: #EBEBEB;stroke-linecap: butt;"/>
<polyline points="31.30,304.05 1365.63,304.05" style="stroke-width: 0.53;stroke: #EBEBEB;stroke-linecap: butt;"/>
<polyline points="31.30,102.06 1365.63,102.06" style="stroke-width: 0.53;stroke: #EBEBEB;stroke-linecap: butt;"/>
<polyline points="243.58,622.71 243.58,5.48" style="stroke-width: 0.53;stroke: #EBEBEB;stroke-linecap: butt;"/>
<polyline points="546.84,622.71 546.84,5.48" style="stroke-width: 0.53;stroke: #EBEBEB;stroke-linecap: butt;"/>
<polyline points="850.10,622.71 850.10,5.48" style="stroke-width: 0.53;stroke: #EBEBEB;stroke-linecap: butt;"/>
<polyline points="1153.35,622.71 1153.35,5.48" style="stroke-width: 0.53;stroke: #EBEBEB;stroke-linecap: butt;"/>
<polyline points="31.30,607.03 1365.63,607.03" style="stroke-width: 1.07;stroke: #EBEBEB;stroke-linecap: butt;"/>
<polyline points="31.30,405.05 1365.63,405.05" style="stroke-width: 1.07;stroke: #EBEBEB;stroke-linecap: butt;"/>
<polyline points="31.30,203.06 1365.63,203.06" style="stroke-width: 1.07;stroke: #EBEBEB;stroke-linecap: butt;"/>
<polyline points="91.95,622.71 91.95,5.48" style="stroke-width: 1.07;stroke: #EBEBEB;stroke-linecap: butt;"/>
<polyline points="395.21,622.71 395.21,5.48" style="stroke-width: 1.07;stroke: #EBEBEB;stroke-linecap: butt;"/>
<polyline points="698.47,622.71 698.47,5.48" style="stroke-width: 1.07;stroke: #EBEBEB;stroke-linecap: butt;"/>
<polyline points="1001.72,622.71 1001.72,5.48" style="stroke-width: 1.07;stroke: #EBEBEB;stroke-linecap: butt;"/>
<polyline points="1304.98,622.71 1304.98,5.48" style="stroke-width: 1.07;stroke: #EBEBEB;stroke-linecap: butt;"/>
<circle cx="122.77" cy="281.55" r="1.95" style="stroke-width: 0.71;stroke: #000000;stroke-opacity: 0.55;fill: #000000;fill-opacity: 0.55;"/>
<circle cx="102.32" cy="327.94" r="1.95" style="stroke-width: 0.71;stroke: #000000;stroke-opacity: 0.55;fill: #000000;fill-opacity: 0.55;"/>
<circle cx="1037.07" cy="346.17" r="1.95" style="stroke-width: 0.71;stroke: #000000;stroke-opacity: 0.55;fill: #000000;fill-opacity: 0.55;"/>
<circle cx="1037.47" cy="417.47" r="1.95" style="stroke-width: 0.71;stroke: #000000;stroke-opacity: 0.55;fill: #000000;fill-opacity: 0.55;"/>
<circle cx="938.52" cy="274.47" r="1.95" style="stroke-width: 0.71;stroke: #000000;stroke-opacity: 0.55;fill: #000000;fill-opacity: 0.55;"/>
<circle cx="862.98" cy="196.74" r="1.95" style="stroke-width: 0.71;stroke: #000000;stroke-opacity: 0.55;fill: #000000;fill-opacity: 0.55;"/>
<circle cx="725.70" cy="371.60" r="1.95" style="stroke-width: 0.71;stroke: #000000;stroke-opacity: 0.55;fill: #000000;fill-opacity: 0.55;"/>
<circle cx="575.69" cy="173.47" r="1.95" style="stroke-width: 0.71;stroke: #000000;stroke-opacity: 0.55;fill: #000000;fill-opacity: 0.55;"/>
<circle cx="481.20" cy="211.19" r="1.95" style="stroke-width: 0.71;stroke: #000000;stroke-opacity: 0.55;fill: #000000;fill-opacity: 0.55;"/>
<circle cx="1261.77" cy="576.41" r="1.95" style="stroke-width: 0.71;stroke: #000000;stroke-opacity: 0.55;fill: #000000;fill-opacity: 0.55;"/>
<circle cx="1097.45" cy="414.89" r="1.95" style="stroke-width: 0.71;stroke: #000000;stroke-opacity: 0.55;fill: #000000;fill-opacity: 0.55;"/>
<circle cx="455.36" cy="285.08" r="1.95" style="stroke-width: 0.71;stroke: #000000;stroke-opacity: 0.55;fill: #000000;fill-opacity: 0.55;"/>
<circle cx="123.42" cy="314.87" r="1.95" style="stroke-width: 0.71;stroke: #000000;stroke-opacity: 0.55;fill: #000000;fill-opacity: 0.55;"/>
<circle cx="988.73" cy="417.98" r="1.95" style="stroke-width: 0.71;stroke: #000000;stroke-opacity: 0.55;fill: #000000;fill-opacity: 0.55;"/>
<circle cx="120.68" cy="340.27" r="1.95" style="stroke-width: 0.71;stroke: #000000;stroke-opacity: 0.55;fill: #000000;fill-opacity: 0.55;"/>
<circle cx="258.16" cy="342.16" r="1.95" style="stroke-width: 0.71;stroke: #000000;stroke-opacity: 0.55;fill: #000000;fill-opacity: 0.55;"/>
<circle cx="95.04" cy="406.94" r="1.95" style="stroke-width: 0.71;stroke: #000000;stroke-opacity: 0.55;fill: #000000;fill-opacity: 0.55;"/>
<circle cx="356.74" cy="168.68" r="1.95" style="stroke-width: 0.71;stroke: #000000;stroke-opacity: 0.55;fill: #000000;fill-opacity: 0.55;"/>
<circle cx="204.85" cy="321.28" r="1.95" style="stroke-width: 0.71;stroke: #000000;stroke-opacity: 0.55;fill: #000000;fill-opacity: 0.55;"/>
<circle cx="544.48" cy="249.90" r="1.95" style="stroke-width: 0.71;stroke: #000000;stroke-opacity: 0.55;fill: #000000;fill-opacity: 0.55;"/>
<circle cx="940.44" cy="354.09" r="1.95" style="stroke-width: 0.71;stroke: #000000;stroke-opacity: 0.55;fill: #000000;fill-opacity: 0.55;"/>
<circle cx="569.94" cy="206.74" r="1.95" style="stroke-width: 0.71;stroke: #000000;stroke-opacity: 0.55;fill: #000000;fill-opacity: 0.55;"/>
<circle cx="406.94" cy="69.16" r="1.95" style="stroke-width: 0.71;stroke: #000000;stroke-opacity: 0.55;fill: #000000;fill-opacity: 0.55;"/>
<circle cx="339.03" cy="283.17" r="1.95" style="stroke-width: 0.71;stroke: #000000;stroke-opacity: 0.55;fill: #000000;fill-opacity: 0.55;"/>
<circle cx="430.47" cy="231.70" r="1.95" style="stroke-width: 0.71;stroke: #000000;stroke-opacity: 0.55;fill: #000000;fill-opacity: 0.55;"/>
<circle cx="755.71" cy="255.27" r="1.95" style="stroke-width: 0.71;stroke: #000000;stroke-opacity: 0.55;fill: #000000;fill-opacity: 0.55;"/>
<circle cx="442.43" cy="199.64" r="1.95" style="stroke-width: 0.71;stroke: #000000;stroke-opacity: 0.55;fill: #000000;fill-opacity: 0.55;"/>
<circle cx="799.17" cy="286.59" r="1.95" style="stroke-width: 0.71;stroke: #000000;stroke-opacity: 0.55;fill: #000000;fill-opacity: 0.55;"/>
<circle cx="733.69" cy="295.79" r="1.95" style="stroke-width: 0.71;stroke: #000000;stroke-opacity: 0.55;fill: #000000;fill-opacity: 0.55;"/>
<circle cx="758.65" cy="56.11" r="1.95" style="stroke-width: 0.71;stroke: #000000;stroke-opacity: 0.55;fill: #000000;fill-opacity: 0.55;"/>
<circle cx="285.41" cy="369.28" r="1.95" style="stroke-width: 0.71;stroke: #000000;stroke-opacity: 0.55;fill: #000000;fill-opacity: 0.55;"/>
<circle cx="723.72" cy="120.84" r="1.95" style="stroke-width: 0.71;stroke: #000000;stroke-opacity: 0.55;fill: #000000;fill-opacity: 0.55;"/>
<circle cx="635.00" cy="241.79" r="1.95" style="stroke-width: 0.71;stroke: #000000;stroke-opacity: 0.55;fill: #000000;fill-opacity: 0.55;"/>
<circle cx="551.61" cy="215.09" r="1.95" style="stroke-width: 0.71;stroke: #000000;stroke-opacity: 0.55;fill: #000000;fill-opacity: 0.55;"/>
<circle cx="969.74" cy="389.77" r="1.95" style="stroke-width: 0.71;stroke: #000000;stroke-opacity: 0.55;fill: #000000;fill-opacity: 0.55;"/>
<circle cx="414.35" cy="252.57" r="1.95" style="stroke-width: 0.71;stroke: #000000;stroke-opacity: 0.55;fill: #000000;fill-opacity: 0.55;"/>
<circle cx="730.60" cy="339.97" r="1.95" style="stroke-width: 0.71;stroke: #000000;stroke-opacity: 0.55;fill: #000000;fill-opacity: 0.55;"/>
<circle cx="448.88" cy="97.71" r="1.95" style="stroke-width: 0.71;stroke: #000000;stroke-opacity: 0.55;fill: #000000;fill-opacity: 0.55;"/>
<circle cx="655.92" cy="273.80" r="1.95" style="stroke-width: 0.71;stroke: #000000;stroke-opacity: 0.55;fill: #000000;fill-opacity: 0.55;"/>
<circle cx="1027.63" cy="512.11" r="1.95" style="stroke-width: 0.71;stroke: #000000;stroke-opacity: 0.55;fill: #000000;fill-opacity: 0.55;"/>
<circle cx="906.73" cy="185.23" r="1.95" style="stroke-width: 0.71;stroke: #000000;stroke-opacity: 0.55;fill: #000000;fill-opacity: 0.55;"/>
<circle cx="337.66" cy="187.32" r="1.95" style="stroke-width: 0.71;stroke: #000000;stroke-opacity: 0.55;fill: #000000;fill-opacity: 0.55;"/>
<circle cx="1154.11" cy="446.36" r="1.95" style="stroke-width: 0.71;stroke: #000000;stroke-opacity: 0.55;fill: #000000;fill-opacity: 0.55;"/>
<circle cx="1194.23" cy="483.07" r="1.95" style="stroke-width: 0.71;stroke: #000000;stroke-opacity: 0.55;fill: #000000;fill-opacity: 0.55;"/>
<circle cx="1195.41" cy="530.40" r="1.95" style="stroke-width: 0.71;stroke: #000000;stroke-opacity: 0.55;fill: #000000;fill-opacity: 0.55;"/>
<circle cx="430.84" cy="296.87" r="1.95" style="stroke-width: 0.71;stroke: #000000;stroke-opacity: 0.55;fill: #000000;fill-opacity: 0.55;"/>
<circle cx="157.25" cy="398.71" r="1.95" style="stroke-width: 0.71;stroke: #000000;stroke-opacity: 0.55;fill: #000000;fill-opacity: 0.55;"/>
<circle cx="367.22" cy="312.53" r="1.95" style="stroke-width: 0.71;stroke: #000000;stroke-opacity: 0.55;fill: #000000;fill-opacity: 0.55;"/>
<circle cx="178.33" cy="423.53" r="1.95" style="stroke-width: 0.71;stroke: #000000;stroke-opacity: 0.55;fill: #000000;fill-opacity: 0.55;"/>
<circle cx="1244.06" cy="528.51" r="1.95" style="stroke-width: 0.71;stroke: #000000;stroke-opacity: 0.55;fill: #000000;fill-opacity: 0.55;"/>
<circle cx="99.82" cy="397.97" r="1.95" style="stroke-width: 0.71;stroke: #000000;stroke-opacity: 0.55;fill: #000000;fill-opacity: 0.55;"/>
<circle cx="732.89" cy="154.29" r="1.95" style="stroke-width: 0.71;stroke: #000000;stroke-opacity: 0.55;fill: #000000;fill-opacity: 0.55;"/>
<circle cx="108.79" cy="483.74" r="1.95" style="stroke-width: 0.71;stroke: #000000;stroke-opacity: 0.55;fill: #000000;fill-opacity: 0.55;"/>
<circle cx="1015.13" cy="391.13" r="1.95" style="stroke-width: 0.71;stroke: #000000;stroke-opacity: 0.55;fill: #000000;fill-opacity: 0.55;"/>
<circle cx="920.52" cy="381.01" r="1.95" style="stroke-width: 0.71;stroke: #000000;stroke-opacity: 0.55;fill: #000000;fill-opacity: 0.55;"/>
<circle cx="772.28" cy="242.78" r="1.95" style="stroke-width: 0.71;stroke: #000000;stroke-opacity: 0.55;fill: #000000;fill-opacity: 0.55;"/>
<circle cx="391.99" cy="216.46" r="1.95" style="stroke-width: 0.71;stroke: #000000;stroke-opacity: 0.55;fill: #000000;fill-opacity: 0.55;"/>
<circle cx="831.01" cy="316.24" r="1.95" style="stroke-width: 0.71;stroke: #000000;stroke-opacity: 0.55;fill: #000000;fill-opacity: 0.55;"/>
<circle cx="287.08" cy="313.99" r="1.95" style="stroke-width: 0.71;stroke: #000000;stroke-opacity: 0.55;fill: #000000;fill-opacity: 0.55;"/>
<circle cx="638.98" cy="182.46" r="1.95" style="stroke-width: 0.71;stroke: #000000;stroke-opacity: 0.55;fill: #000000;fill-opacity: 0.55;"/>
<circle cx="567.42" cy="163.12" r="1.95" style="stroke-width: 0.71;stroke: #000000;stroke-opacity: 0.55;fill: #000000;fill-opacity: 0.55;"/>
<circle cx="1144.89" cy="519.71" r="1.95" style="stroke-width: 0.71;stroke: #000000;stroke-opacity: 0.55;fill: #000000;fill-opacity: 0.55;"/>
<circle cx="291.02" cy="321.00" r="1.95" style="stroke-width: 0.71;stroke: #000000;stroke-opacity: 0.55;fill: #000000;fill-opacity: 0.55;"/>
<circle cx="716.14" cy="255.93" r="1.95" style="stroke-width: 0.71;stroke: #000000;stroke-opacity: 0.55;fill: #000000;fill-opacity: 0.55;"/>
<circle cx="831.51" cy="192.55" r="1.95" style="stroke-width: 0.71;stroke: #000000;stroke-opacity: 0.55;fill: #000000;fill-opacity: 0.55;"/>
<circle cx="1233.59" cy="437.70" r="1.95" style="stroke-width: 0.71;stroke: #000000;stroke-opacity: 0.55;fill: #000000;fill-opacity: 0.55;"/>
<circle cx="101.98" cy="304.54" r="1.95" style="stroke-width: 0.71;stroke: #000000;stroke-opacity: 0.55;fill: #000000;fill-opacity: 0.55;"/>
<circle cx="950.17" cy="266.09" r="1.95" style="stroke-width: 0.71;stroke: #000000;stroke-opacity: 0.55;fill: #000000;fill-opacity: 0.55;"/>
<circle cx="770.97" cy="284.09" r="1.95" style="stroke-width: 0.71;stroke: #000000;stroke-opacity: 0.55;fill: #000000;fill-opacity: 0.55;"/>
<circle cx="713.76" cy="238.43" r="1.95" style="stroke-width: 0.71;stroke: #000000;stroke-opacity: 0.55;fill: #000000;fill-opacity: 0.55;"/>
<circle cx="1019.16" cy="403.13" r="1.95" style="stroke-width: 0.71;stroke: #000000;stroke-opacity: 0.55;fill: #000000;fill-opacity: 0.55;"/>
<circle cx="1142.88" cy="510.66" r="1.95" style="stroke-width: 0.71;stroke: #000000;stroke-opacity: 0.55;fill: #000000;fill-opacity: 0.55;"/>
<circle cx="1265.56" cy="546.50" r="1.95" style="stroke-width: 0.71;stroke: #000000;stroke-opacity: 0.55;fill: #000000;fill-opacity: 0.55;"/>
<circle cx="1150.89" cy="397.51" r="1.95" style="stroke-width: 0.71;stroke: #000000;stroke-opacity: 0.55;fill: #000000;fill-opacity: 0.55;"/>
<circle cx="1043.15" cy="385.36" r="1.95" style="stroke-width: 0.71;stroke: #000000;stroke-opacity: 0.55;fill: #000000;fill-opacity: 0.55;"/>
<circle cx="1107.39" cy="454.69" r="1.95" style="stroke-width: 0.71;stroke: #000000;stroke-opacity: 0.55;fill: #000000;fill-opacity: 0.55;"/>
<circle cx="445.69" cy="109.47" r="1.95" style="stroke-width: 0.71;stroke: #000000;stroke-opacity: 0.55;fill: #000000;fill-opacity: 0.55;"/>
<circle cx="938.29" cy="300.11" r="1.95" style="stroke-width: 0.71;stroke: #000000;stroke-opacity: 0.55;fill: #000000;fill-opacity: 0.55;"/>
<circle cx="1191.76" cy="427.00" r="1.95" style="stroke-width: 0.71;stroke: #000000;stroke-opacity: 0.55;fill: #000000;fill-opacity: 0.55;"/>
<circle cx="364.81" cy="151.29" r="1.95" style="stroke-width: 0.71;stroke: #000000;stroke-opacity: 0.55;fill: #000000;fill-opacity: 0.55;"/>
<circle cx="497.29" cy="169.76" r="1.95" style="stroke-width: 0.71;stroke: #000000;stroke-opacity: 0.55;fill: #000000;fill-opacity: 0.55;"/>
<circle cx="1150.16" cy="594.65" r="1.95" style="stroke-width: 0.71;stroke: #000000;stroke-opacity: 0.55;fill: #000000;fill-opacity: 0.55;"/>
<circle cx="141.65" cy="400.34" r="1.95" style="stroke-width: 0.71;stroke: #000000;stroke-opacity: 0.55;fill: #000000;fill-opacity: 0.55;"/>
<circle cx="810.85" cy="330.80" r="1.95" style="stroke-width: 0.71;stroke: #000000;stroke-opacity: 0.55;fill: #000000;fill-opacity: 0.55;"/>
<circle cx="357.45" cy="230.79" r="1.95" style="stroke-width: 0.71;stroke: #000000;stroke-opacity: 0.55;fill: #000000;fill-opacity: 0.55;"/>
<circle cx="819.29" cy="301.75" r="1.95" style="stroke-width: 0.71;stroke: #000000;stroke-opacity: 0.55;fill: #000000;fill-opacity: 0.55;"/>
<circle cx="565.31" cy="152.61" r="1.95" style="stroke-width: 0.71;stroke: #000000;stroke-opacity: 0.55;fill: #000000;fill-opacity: 0.55;"/>
<circle cx="261.91" cy="162.77" r="1.95" style="stroke-width: 0.71;stroke: #000000;stroke-opacity: 0.55;fill: #000000;fill-opacity: 0.55;"/>
<circle cx="251.93" cy="250.78" r="1.95" style="stroke-width: 0.71;stroke: #000000;stroke-opacity: 0.55;fill: #000000;fill-opacity: 0.55;"/>
<circle cx="291.56" cy="315.80" r="1.95" style="stroke-width: 0.71;stroke: #000000;stroke-opacity: 0.55;fill: #000000;fill-opacity: 0.55;"/>
<circle cx="773.59" cy="203.62" r="1.95" style="stroke-width: 0.71;stroke: #000000;stroke-opacity: 0.55;fill: #000000;fill-opacity: 0.55;"/>
<circle cx="111.69" cy="269.35" r="1.95" style="stroke-width: 0.71;stroke: #000000;stroke-opacity: 0.55;fill: #000000;fill-opacity: 0.55;"/>
<circle cx="540.87" cy="200.24" r="1.95" style="stroke-width: 0.71;stroke: #000000;stroke-opacity: 0.55;fill: #000000;fill-opacity: 0.55;"/>
<circle cx="609.44" cy="212.11" r="1.95" style="stroke-width: 0.71;stroke: #000000;stroke-opacity: 0.55;fill: #000000;fill-opacity: 0.55;"/>
<circle cx="1230.85" cy="524.78" r="1.95" style="stroke-width: 0.71;stroke: #000000;stroke-opacity: 0.55;fill: #000000;fill-opacity: 0.55;"/>
<circle cx="850.47" cy="352.17" r="1.95" style="stroke-width: 0.71;stroke: #000000;stroke-opacity: 0.55;fill: #000000;fill-opacity: 0.55;"/>
<circle cx="616.55" cy="33.54" r="1.95" style="stroke-width: 0.71;stroke: #000000;stroke-opacity: 0.55;fill: #000000;fill-opacity: 0.55;"/>
<circle cx="832.92" cy="222.78" r="1.95" style="stroke-width: 0.71;stroke: #000000;stroke-opacity: 0.55;fill: #000000;fill-opacity: 0.55;"/>
<circle cx="238.47" cy="304.47" r="1.95" style="stroke-width: 0.71;stroke: #000000;stroke-opacity: 0.55;fill: #000000;fill-opacity: 0.55;"/>
<circle cx="893.86" cy="262.60" r="1.95" style="stroke-width: 0.71;stroke: #000000;stroke-opacity: 0.55;fill: #000000;fill-opacity: 0.55;"/>
<polyline points="95.04,402.99 99.82,399.80 101.98,398.37 102.32,398.14 108.79,393.83 111.69,391.91 120.68,385.94 122.77,384.55 123.42,384.12 141.65,372.09 157.25,361.89 178.33,348.28 204.85,331.57 238.47,311.21 251.93,303.36 258.16,299.80 261.91,297.67 285.41,284.76 287.08,283.86 291.02,281.77 291.56,281.49 337.66,258.71 339.03,258.09 356.74,250.25 357.45,249.95 364.81,246.85 367.22,245.86 391.99,236.25 406.94,230.98 414.35,228.53 430.47,223.56 430.84,223.45 442.43,220.21 445.69,219.34 448.88,218.52 455.36,216.90 481.20,211.33 497.29,208.57 540.87,203.88 544.48,203.68 551.61,203.36 565.31,203.07 567.42,203.06 569.94,203.06 575.69,203.12 609.44,204.91 616.55,205.61 635.00,207.92 638.98,208.52 655.92,211.43 713.76,225.85 716.14,226.58 723.72,229.00 725.70,229.66 730.60,231.30 732.89,232.08 733.69,232.36 755.71,240.41 758.65,241.55 770.97,246.51 772.28,247.05 773.59,247.59 799.17,258.81 810.85,264.29 819.29,268.37 831.01,274.22 831.51,274.47 832.92,275.20 850.47,284.36 862.98,291.14 893.86,308.69 906.73,316.31 920.52,324.65 938.29,335.64 938.52,335.78 940.44,336.99 950.17,343.12 969.74,355.65 988.73,368.00 1015.13,385.41 1019.16,388.08 1027.63,393.71 1037.07,399.99 1037.47,400.26 1043.15,404.04 1097.45,440.03 1107.39,446.53 1142.88,469.33 1144.89,470.59 1150.16,473.91 1150.89,474.36 1154.11,476.37 1191.76,499.22 1194.23,500.68 1195.41,501.37 1230.85,521.41 1233.59,522.90 1244.06,528.49 1261.77,537.61 1265.56,539.51" style="stroke-width: 1.07;stroke: #FF0000;stroke-linecap: butt;"/>
<polyline points="91.95,352.75 94.38,352.75 96.82,352.75 99.25,352.75 101.68,352.75 104.11,352.75 106.54,352.75 108.97,352.75 111.40,352.75 113.83,352.75 116.26,352.75 118.69,352.75 121.12,352.75 123.56,352.75 125.99,352.75 128.42,351.93 130.85,351.93 133.28,351.93 135.71,351.93 138.14,351.93 140.57,354.48 143.00,354.48 145.43,354.48 147.86,354.48 150.30,354.48 152.73,354.48 155.16,356.16 157.59,356.16 160.02,356.16 162.45,356.16 164.88,356.16 167.31,356.16 169.74,356.16 172.17,353.81 174.60,353.81 177.04,353.81 179.47,353.81 181.90,330.52 184.33,330.52 186.76,337.80 189.19,337.80 191.62,320.05 194.05,320.05 196.48,320.05 198.91,320.05 201.34,320.05 203.78,320.05 206.21,328.73 208.64,328.73 211.07,328.73 213.50,328.73 215.93,328.73 218.36,320.80 220.79,320.80 223.22,320.80 225.65,312.51 228.08,312.51 230.52,312.51 232.95,312.51 235.38,312.51 237.81,312.51 240.24,312.51 242.67,312.51 245.10,312.51 247.53,312.51 249.96,312.51 252.39,312.51 254.82,312.51 257.26,312.51 259.69,288.88 262.12,288.88 264.55,288.88 266.98,288.88 269.41,288.88 271.84,288.88 274.27,285.07 276.70,285.07 279.13,285.07 281.56,285.07 284.00,285.07 286.43,285.07 288.86,285.07 291.29,285.07 293.72,285.07 296.15,285.07 298.58,271.50 301.01,271.50 303.44,271.50 305.87,269.50 308.30,269.50 310.74,269.50 313.17,250.41 315.60,265.39 318.03,265.39 320.46,265.39 322.89,265.39 325.32,265.39 327.75,265.39 330.18,265.39 332.61,265.39 335.04,265.39 337.48,265.39 339.91,250.10 342.34,250.10 344.77,250.10 347.20,225.62 349.63,225.62 352.06,225.62 354.49,218.78 356.92,218.78 359.35,218.78 361.78,210.37 364.22,210.37 366.65,210.37 369.08,210.37 371.51,210.37 373.94,210.37 376.37,210.37 378.80,210.37 381.23,210.37 383.66,210.37 386.09,221.32 388.52,221.32 390.96,212.97 393.39,212.97 395.82,212.97 398.25,212.97 400.68,212.97 403.11,207.05 405.54,193.74 407.97,193.74 410.40,207.12 412.83,207.12 415.27,207.12 417.70,207.12 420.13,207.12 422.56,207.12 424.99,196.99 427.42,196.99 429.85,196.99 432.28,196.99 434.71,196.99 437.14,196.99 439.57,196.99 442.01,196.99 444.44,196.99 446.87,192.32 449.30,192.32 451.73,192.32 454.16,192.32 456.59,192.32 459.02,192.32 461.45,192.32 463.88,192.32 466.31,192.32 468.75,192.32 471.18,192.32 473.61,192.32 476.04,205.42 478.47,205.42 480.90,205.16 483.33,205.16 485.76,205.16 488.19,205.16 490.62,205.16 493.05,203.50 495.49,203.50 497.92,203.50 500.35,189.07 502.78,189.07 505.21,185.42 507.64,185.42 510.07,195.14 512.50,202.72 514.93,202.72 517.36,202.72 519.79,202.72 522.23,202.72 524.66,202.72 527.09,202.72 529.52,202.72 531.95,202.72 534.38,195.42 536.81,195.42 539.24,195.42 541.67,195.42 544.10,195.42 546.53,195.42 548.97,177.66 551.40,177.66 553.83,177.66 556.26,177.66 558.69,177.66 561.12,177.66 563.55,177.66 565.98,177.66 568.41,184.86 570.84,184.86 573.27,184.86 575.71,184.86 578.14,184.86 580.57,184.86 583.00,184.86 585.43,184.86 587.86,184.86 590.29,183.08 592.72,183.08 595.15,183.08 597.58,183.08 600.01,183.08 602.45,185.47 604.88,185.47 607.31,185.47 609.74,185.47 612.17,185.47 614.60,185.47 617.03,185.47 619.46,185.47 621.89,185.47 624.32,185.47 626.75,185.47 629.19,185.47 631.62,185.47 634.05,187.81 636.48,187.81 638.91,187.81 641.34,198.14 643.77,198.14 646.20,193.91 648.63,210.40 651.06,210.40 653.49,227.05 655.93,227.05 658.36,227.05 660.79,227.05 663.22,227.05 665.65,227.05 668.08,227.05 670.51,227.05 672.94,221.27 675.37,247.49 677.80,247.49 680.23,247.49 682.67,247.49 685.10,247.49 687.53,247.49 689.96,247.49 692.39,247.49 694.82,247.49 697.25,248.84 699.68,236.20 702.11,236.20 704.54,236.20 706.97,236.20 709.41,236.20 711.84,236.20 714.27,237.23 716.70,237.23 719.13,237.23 721.56,237.23 723.99,237.23 726.42,237.23 728.85,237.23 731.28,237.23 733.72,237.23 736.15,237.23 738.58,237.23 741.01,237.23 743.44,237.67 745.87,232.44 748.30,232.44 750.73,232.44 753.16,232.44 755.59,232.44 758.02,232.44 760.46,232.44 762.89,249.01 765.32,249.01 767.75,249.01 770.18,244.93 772.61,244.93 775.04,241.11 777.47,241.11 779.90,241.11 782.33,257.30 784.76,246.98 787.20,246.98 789.63,246.98 792.06,246.98 794.49,243.73 796.92,243.73 799.35,243.73 801.78,243.73 804.21,243.73 806.64,273.34 809.07,273.34 811.50,273.34 813.94,273.34 816.37,273.34 818.80,264.60 821.23,264.60 823.66,264.60 826.09,264.60 828.52,264.60 830.95,264.60 833.38,266.58 835.81,266.58 838.24,266.58 840.68,264.75 843.11,264.75 845.54,264.75 847.97,264.75 850.40,264.75 852.83,264.75 855.26,264.75 857.69,264.75 860.12,274.19 862.55,274.19 864.98,274.19 867.42,274.19 869.85,274.19 872.28,274.19 874.71,271.12 877.14,271.12 879.57,268.39 882.00,268.39 884.43,268.39 886.86,272.17 889.29,272.17 891.72,279.53 894.16,279.53 896.59,279.53 899.02,279.53 901.45,296.23 903.88,296.23 906.31,296.23 908.74,296.23 911.17,296.23 913.60,296.23 916.03,296.23 918.46,296.23 920.90,302.81 923.33,302.81 925.76,302.81 928.19,302.81 930.62,302.81 933.05,302.81 935.48,302.81 937.91,302.81 940.34,322.25 942.77,322.25 945.20,322.25 947.64,322.25 950.07,322.25 952.50,322.25 954.93,322.25 957.36,336.30 959.79,336.30 962.22,336.30 964.65,336.30 967.08,336.30 969.51,368.99 971.94,368.99 974.38,368.99 976.81,368.99 979.24,365.51 981.67,365.51 984.10,365.51 986.53,365.51 988.96,377.24 991.39,388.33 993.82,388.33 996.25,388.33 998.68,388.33 1001.12,388.33 1003.55,388.33 1005.98,388.33 1008.41,388.33 1010.84,388.33 1013.27,388.33 1015.70,388.33 1018.13,388.33 1020.56,394.41 1022.99,394.41 1025.42,394.41 1027.86,394.41 1030.29,413.27 1032.72,413.27 1035.15,413.27 1037.58,413.27 1040.01,413.27 1042.44,413.27 1044.87,413.27 1047.30,413.27 1049.73,413.27 1052.17,413.27 1054.60,413.27 1057.03,425.36 1059.46,425.36 1061.89,425.36 1064.32,425.36 1066.75,425.36 1069.18,435.53 1071.61,435.53 1074.04,435.53 1076.47,435.53 1078.91,435.53 1081.34,435.53 1083.77,455.88 1086.20,455.32 1088.63,455.32 1091.06,448.75 1093.49,448.75 1095.92,448.75 1098.35,448.75 1100.78,448.75 1103.21,448.75 1105.65,448.75 1108.08,448.75 1110.51,448.75 1112.94,448.75 1115.37,456.83 1117.80,463.39 1120.23,477.89 1122.66,477.89 1125.09,477.89 1127.52,477.89 1129.95,477.89 1132.39,477.89 1134.82,477.89 1137.25,477.89 1139.68,477.89 1142.11,477.89 1144.54,477.89 1146.97,477.89 1149.40,477.89 1151.83,477.89 1154.26,477.89 1156.69,477.89 1159.13,477.89 1161.56,477.89 1163.99,477.89 1166.42,488.88 1168.85,488.88 1171.28,487.18 1173.71,487.18 1176.14,487.18 1178.57,487.18 1181.00,487.18 1183.43,487.18 1185.87,487.18 1188.30,487.18 1190.73,487.18 1193.16,487.18 1195.59,488.97 1198.02,488.97 1200.45,488.97 1202.88,488.97 1205.31,494.64 1207.74,494.64 1210.17,489.82 1212.61,489.82 1215.04,489.82 1217.47,489.82 1219.90,489.82 1222.33,489.82 1224.76,489.82 1227.19,489.82 1229.62,489.82 1232.05,489.82 1234.48,489.82 1236.91,489.82 1239.35,489.82 1241.78,489.82 1244.21,489.82 1246.64,489.82 1249.07,489.82 1251.50,489.82 1253.93,489.82 1256.36,489.82 1258.79,489.82 1261.22,489.82 1263.65,489.82 1266.09,489.82 1268.52,489.82 1270.95,489.82 1273.38,489.82 1275.81,489.82 1278.24,489.82 1280.67,489.82 1283.10,489.82 1285.53,489.82 1287.96,489.82 1290.39,489.82 1292.83,489.82 1295.26,489.82 1297.69,489.82 1300.12,489.82 1302.55,489.82 1304.98,489.82" style="stroke-width: 1.07;stroke: #0000FF;stroke-linecap: butt;"/>
<polyline points="91.95,297.44 94.38,297.44 96.82,297.44 99.25,297.44 101.68,297.44 104.11,297.44 106.54,297.44 108.97,297.44 111.40,297.44 113.83,297.44 116.26,297.44 118.69,297.44 121.12,297.44 123.56,297.44 125.99,297.44 128.42,297.44 130.85,297.44 133.28,297.44 135.71,297.44 138.14,297.44 140.57,297.44 143.00,297.44 145.43,297.44 147.86,297.44 150.30,297.44 152.73,297.44 155.16,297.44 157.59,297.44 160.02,297.44 162.45,297.44 164.88,297.44 167.31,297.44 169.74,297.44 172.17,297.44 174.60,297.44 177.04,297.44 179.47,297.44 181.90,297.44 184.33,297.44 186.76,297.44 189.19,297.44 191.62,297.44 194.05,297.44 196.48,297.44 198.91,297.44 201.34,297.44 203.78,297.44 206.21,297.44 208.64,297.44 211.07,297.44 213.50,297.44 215.93,297.44 218.36,297.44 220.79,297.44 223.22,297.44 225.65,297.44 228.08,297.44 230.52,297.44 232.95,297.44 235.38,297.44 237.81,297.44 240.24,297.44 242.67,297.44 245.10,297.44 247.53,297.44 249.96,297.44 252.39,297.44 254.82,297.44 257.26,297.44 259.69,297.44 262.12,297.44 264.55,291.60 266.98,288.23 269.41,288.23 271.84,288.23 274.27,277.45 276.70,277.45 279.13,264.58 281.56,264.58 284.00,265.11 286.43,265.11 288.86,265.11 291.29,265.11 293.72,265.11 296.15,265.11 298.58,265.11 301.01,260.81 303.44,260.81 305.87,260.81 308.30,260.81 310.74,257.08 313.17,257.08 315.60,257.08 318.03,257.08 320.46,257.08 322.89,257.08 325.32,257.08 327.75,257.08 330.18,257.08 332.61,253.26 335.04,253.26 337.48,253.26 339.91,253.26 342.34,253.26 344.77,248.24 347.20,248.24 349.63,248.24 352.06,248.24 354.49,242.12 356.92,242.12 359.35,242.12 361.78,242.12 364.22,242.12 366.65,242.12 369.08,242.12 371.51,242.12 373.94,233.09 376.37,233.09 378.80,233.09 381.23,233.09 383.66,233.09 386.09,233.09 388.52,227.82 390.96,227.82 393.39,227.82 395.82,227.82 398.25,227.82 400.68,227.82 403.11,227.82 405.54,224.56 407.97,224.56 410.40,224.56 412.83,224.56 415.27,221.99 417.70,221.99 420.13,221.99 422.56,221.99 424.99,221.99 427.42,221.99 429.85,221.99 432.28,221.99 434.71,217.65 437.14,217.65 439.57,213.34 442.01,213.34 444.44,213.34 446.87,213.34 449.30,213.34 451.73,213.34 454.16,213.34 456.59,213.34 459.02,213.34 461.45,209.09 463.88,204.71 466.31,204.71 468.75,204.71 471.18,204.71 473.61,203.14 476.04,203.14 478.47,203.14 480.90,203.14 483.33,203.14 485.76,203.14 488.19,203.14 490.62,203.14 493.05,203.14 495.49,203.14 497.92,203.14 500.35,203.14 502.78,200.56 505.21,200.56 507.64,200.56 510.07,200.56 512.50,200.56 514.93,200.56 517.36,200.56 519.79,200.56 522.23,200.56 524.66,200.56 527.09,202.84 529.52,202.84 531.95,197.43 534.38,197.43 536.81,197.43 539.24,197.43 541.67,204.20 544.10,207.84 546.53,207.84 548.97,207.94 551.40,207.38 553.83,207.38 556.26,207.38 558.69,207.38 561.12,207.38 563.55,207.38 565.98,207.38 568.41,207.38 570.84,207.38 573.27,207.38 575.71,208.67 578.14,208.67 580.57,208.67 583.00,208.24 585.43,208.24 587.86,208.24 590.29,208.24 592.72,209.29 595.15,209.29 597.58,209.29 600.01,209.29 602.45,206.55 604.88,206.55 607.31,206.55 609.74,206.55 612.17,206.55 614.60,206.55 617.03,206.55 619.46,206.55 621.89,209.45 624.32,209.45 626.75,209.45 629.19,216.82 631.62,216.82 634.05,216.82 636.48,223.63 638.91,223.63 641.34,223.63 643.77,224.66 646.20,224.66 648.63,224.66 651.06,224.66 653.49,224.66 655.93,224.66 658.36,224.04 660.79,224.04 663.22,224.04 665.65,225.81 668.08,225.81 670.51,225.81 672.94,225.81 675.37,225.81 677.80,225.81 680.23,225.81 682.67,225.81 685.10,225.81 687.53,225.81 689.96,225.81 692.39,225.81 694.82,225.81 697.25,230.87 699.68,230.87 702.11,230.87 704.54,229.10 706.97,229.10 709.41,229.10 711.84,229.10 714.27,229.10 716.70,229.10 719.13,229.10 721.56,229.10 723.99,230.69 726.42,230.69 728.85,230.69 731.28,230.69 733.72,230.69 736.15,231.77 738.58,231.77 741.01,231.77 743.44,231.77 745.87,239.04 748.30,239.04 750.73,239.04 753.16,239.04 755.59,242.15 758.02,245.52 760.46,245.52 762.89,245.52 765.32,245.52 767.75,245.52 770.18,245.52 772.61,245.52 775.04,250.25 777.47,250.25 779.90,250.25 782.33,250.25 784.76,258.00 787.20,258.00 789.63,258.00 792.06,258.00 794.49,258.00 796.92,258.00 799.35,258.00 801.78,258.00 804.21,262.93 806.64,262.93 809.07,262.93 811.50,262.93 813.94,270.78 816.37,270.78 818.80,270.78 821.23,270.78 823.66,270.78 826.09,270.78 828.52,270.78 830.95,270.78 833.38,270.78 835.81,274.69 838.24,274.69 840.68,274.69 843.11,274.69 845.54,274.69 847.97,274.69 850.40,274.69 852.83,274.69 855.26,274.69 857.69,274.69 860.12,274.69 862.55,274.69 864.98,274.69 867.42,280.18 869.85,280.18 872.28,288.72 874.71,288.72 877.14,288.72 879.57,288.72 882.00,297.76 884.43,297.76 886.86,297.76 889.29,299.28 891.72,299.28 894.16,299.28 896.59,299.28 899.02,299.28 901.45,299.28 903.88,299.28 906.31,299.28 908.74,299.28 911.17,299.28 913.60,299.28 916.03,307.96 918.46,307.96 920.90,313.26 923.33,313.26 925.76,313.26 928.19,313.26 930.62,313.26 933.05,313.26 935.48,313.26 937.91,313.26 940.34,313.26 942.77,313.26 945.20,313.26 947.64,313.26 950.07,321.77 952.50,337.23 954.93,337.23 957.36,337.23 959.79,337.23 962.22,352.74 964.65,360.83 967.08,360.83 969.51,360.83 971.94,360.83 974.38,360.83 976.81,360.83 979.24,360.83 981.67,360.83 984.10,360.83 986.53,360.83 988.96,360.83 991.39,360.83 993.82,360.83 996.25,365.51 998.68,365.51 1001.12,365.51 1003.55,370.58 1005.98,370.58 1008.41,378.21 1010.84,378.21 1013.27,378.21 1015.70,378.21 1018.13,378.21 1020.56,378.21 1022.99,378.21 1025.42,378.21 1027.86,378.21 1030.29,378.21 1032.72,393.33 1035.15,393.33 1037.58,393.33 1040.01,403.52 1042.44,403.52 1044.87,403.52 1047.30,403.52 1049.73,403.52 1052.17,403.52 1054.60,403.52 1057.03,410.99 1059.46,410.99 1061.89,410.99 1064.32,422.65 1066.75,422.65 1069.18,422.65 1071.61,422.65 1074.04,422.65 1076.47,422.65 1078.91,422.65 1081.34,422.65 1083.77,422.65 1086.20,422.65 1088.63,422.65 1091.06,422.65 1093.49,422.65 1095.92,422.65 1098.35,422.65 1100.78,422.65 1103.21,422.65 1105.65,422.65 1108.08,422.65 1110.51,422.65 1112.94,422.65 1115.37,422.65 1117.80,422.65 1120.23,422.65 1122.66,422.65 1125.09,422.65 1127.52,422.65 1129.95,422.65 1132.39,422.65 1134.82,422.65 1137.25,422.65 1139.68,422.65 1142.11,422.65 1144.54,422.65 1146.97,422.65 1149.40,422.65 1151.83,422.65 1154.26,422.65 1156.69,422.65 1159.13,422.65 1161.56,422.65 1163.99,422.65 1166.42,422.65 1168.85,422.65 1171.28,422.65 1173.71,422.65 1176.14,422.65 1178.57,422.65 1181.00,422.65 1183.43,422.65 1185.87,422.65 1188.30,422.65 1190.73,422.65 1193.16,422.65 1195.59,422.65 1198.02,422.65 1200.45,422.65 1202.88,422.65 1205.31,422.65 1207.74,422.65 1210.17,422.65 1212.61,422.65 1215.04,422.65 1217.47,422.65 1219.90,422.65 1222.33,422.65 1224.76,422.65 1227.19,422.65 1229.62,422.65 1232.05,422.65 1234.48,422.65 1236.91,422.65 1239.35,422.65 1241.78,422.65 1244.21,422.65 1246.64,422.65 1249.07,422.65 1251.50,422.65 1253.93,422.65 1256.36,422.65 1258.79,422.65 1261.22,422.65 1263.65,422.65 1266.09,422.65 1268.52,422.65 1270.95,422.65 1273.38,422.65 1275.81,422.65 1278.24,422.65 1280.67,422.65 1283.10,422.65 1285.53,422.65 1287.96,422.65 1290.39,422.65 1292.83,422.65 1295.26,422.65 1297.69,422.65 1300.12,422.65 1302.55,422.65 1304.98,422.65" style="stroke-width: 1.07;stroke: #00FF00;stroke-linecap: butt;"/>
</g><g clip-path="url(#c2)">
<g><text x="26.37" y="610.19" text-anchor="end" style="font-family: Arial;font-size: 8.80px;fill: #4D4D4D;" textLength="7.83px" lengthAdjust="spacingAndGlyphs">-1</text></g>
<g><text x="26.37" y="408.20" text-anchor="end" style="font-family: Arial;font-size: 8.80px;fill: #4D4D4D;" textLength="4.90px" lengthAdjust="spacingAndGlyphs">0</text></g>
<g><text x="26.37" y="206.21" text-anchor="end" style="font-family: Arial;font-size: 8.80px;fill: #4D4D4D;" textLength="4.90px" lengthAdjust="spacingAndGlyphs">1</text></g>
<g><text x="91.95" y="633.95" text-anchor="middle" style="font-family: Arial;font-size: 8.80px;fill: #4D4D4D;" textLength="17.13px" lengthAdjust="spacingAndGlyphs">0.00</text></g>
<g><text x="395.21" y="633.95" text-anchor="middle" style="font-family: Arial;font-size: 8.80px;fill: #4D4D4D;" textLength="17.13px" lengthAdjust="spacingAndGlyphs">0.25</text></g>
<g><text x="698.47" y="633.95" text-anchor="middle" style="font-family: Arial;font-size: 8.80px;fill: #4D4D4D;" textLength="17.13px" lengthAdjust="spacingAndGlyphs">0.50</text></g>
<g><text x="1001.72" y="633.95" text-anchor="middle" style="font-family: Arial;font-size: 8.80px;fill: #4D4D4D;" textLength="17.13px" lengthAdjust="spacingAndGlyphs">0.75</text></g>
<g><text x="1304.98" y="633.95" text-anchor="middle" style="font-family: Arial;font-size: 8.80px;fill: #4D4D4D;" textLength="17.13px" lengthAdjust="spacingAndGlyphs">1.00</text></g>
<g><text x="698.47" y="646.53" text-anchor="middle" style="font-family: Arial;font-size: 11.00px;" textLength="7.34px" lengthAdjust="spacingAndGlyphs">X</text></g>
<g><text transform="translate(13.37,314.10) rotate(-90.00)" text-anchor="middle" style="font-family: Arial;font-size: 11.00px;" textLength="7.34px" lengthAdjust="spacingAndGlyphs">Y</text></g>
</g>
</svg>